<svg xmlns="http://www.w3.org/2000/svg" viewBox="0 0 32 32" fill="none">
  <!-- DeezOps tab mark: crisp at 16–32px -->
  <rect width="32" height="32" rx="7" fill="#0c0a14"/>
  <rect x="1.5" y="1.5" width="29" height="29" rx="5.5" stroke="#ffe600" stroke-width="2"/>
  <!-- D -->
  <path
    fill="#ff6b1a"
    d="M7 8.5h5.2c3.55 0 5.9 2.15 5.9 5.5S15.75 19.5 12.2 19.5H7V8.5zm3.1 2.55v5.9h2c1.85 0 2.95-1.1 2.95-2.95S14 11.05 12.1 11.05h-2z"
  />
  <!-- O -->
  <path
    fill="#39ff9e"
    d="M22.1 8.2c3.05 0 5.15 2.2 5.15 5.8s-2.1 5.8-5.15 5.8-5.15-2.2-5.15-5.8 2.1-5.8 5.15-5.8zm0 2.55c-1.45 0-2.2 1.2-2.2 3.25s.75 3.25 2.2 3.25 2.2-1.2 2.2-3.25-.75-3.25-2.2-3.25z"
  />
</svg>
